<svg width="100" height="100" viewBox="0 0 100 100" fill="none" xmlns="http://www.w3.org/2000/svg">
<rect width="100" height="100" fill="#00FF94"/>
<mask id="path-2-inside-1_3_17" fill="white">
<path d="M70.6483 49C78.0222 49 84.2338 55.1986 81.4119 62.0112C79.7032 66.1363 77.1988 69.8844 74.0416 73.0416C70.8844 76.1988 67.1363 78.7032 63.0112 80.4119C58.8862 82.1206 54.4649 83 50 83C45.5351 83 41.1138 82.1206 36.9888 80.4119C32.8637 78.7032 29.1156 76.1988 25.9584 73.0416C22.8012 69.8844 20.2968 66.1363 18.5881 62.0112C15.7662 55.1986 21.9778 49 29.3517 49H50H70.6483Z"/>
</mask>
<path d="M70.6483 49C78.0222 49 84.2338 55.1986 81.4119 62.0112C79.7032 66.1363 77.1988 69.8844 74.0416 73.0416C70.8844 76.1988 67.1363 78.7032 63.0112 80.4119C58.8862 82.1206 54.4649 83 50 83C45.5351 83 41.1138 82.1206 36.9888 80.4119C32.8637 78.7032 29.1156 76.1988 25.9584 73.0416C22.8012 69.8844 20.2968 66.1363 18.5881 62.0112C15.7662 55.1986 21.9778 49 29.3517 49H50H70.6483Z" stroke="white" stroke-width="8" mask="url(#path-2-inside-1_3_17)"/>
<mask id="path-3-inside-2_3_17" fill="white">
<path d="M26.7644 43.5849C22.8568 41.3289 21.4604 36.2431 24.5591 32.9633C26.8784 30.5086 29.5505 28.392 32.5 26.6891C37.8207 23.6172 43.8562 22 50 22C56.1438 22 62.1793 23.6172 67.5 26.6891C70.4495 28.392 73.1216 30.5086 75.4409 32.9633C78.5396 36.2431 77.1432 41.3289 73.2356 43.5849C69.3281 45.8409 64.3803 44.2809 60.6804 41.6984C60.2439 41.3937 59.7934 41.1071 59.3302 40.8396C56.4935 39.2019 53.2756 38.3396 50 38.3396C46.7244 38.3396 43.5065 39.2019 40.6698 40.8396C40.2066 41.1071 39.7561 41.3937 39.3196 41.6984C35.6197 44.2809 30.6719 45.8409 26.7644 43.5849Z"/>
</mask>
<path d="M26.7644 43.5849C22.8568 41.3289 21.4604 36.2431 24.5591 32.9633C26.8784 30.5086 29.5505 28.392 32.5 26.6891C37.8207 23.6172 43.8562 22 50 22C56.1438 22 62.1793 23.6172 67.5 26.6891C70.4495 28.392 73.1216 30.5086 75.4409 32.9633C78.5396 36.2431 77.1432 41.3289 73.2356 43.5849C69.3281 45.8409 64.3803 44.2809 60.6804 41.6984C60.2439 41.3937 59.7934 41.1071 59.3302 40.8396C56.4935 39.2019 53.2756 38.3396 50 38.3396C46.7244 38.3396 43.5065 39.2019 40.6698 40.8396C40.2066 41.1071 39.7561 41.3937 39.3196 41.6984C35.6197 44.2809 30.6719 45.8409 26.7644 43.5849Z" stroke="white" stroke-width="6" mask="url(#path-3-inside-2_3_17)"/>
<path d="M65.9524 57H62.1429V60.3333H59L59 63.6667H62.1429V67H65.9524V63.6667H69V60.3333H65.9524V57Z" fill="white"/>
<circle cx="37" cy="62" r="5" fill="white"/>
</svg>
