<svg width="100" height="100" viewBox="0 0 100 100" fill="none" xmlns="http://www.w3.org/2000/svg">
<rect width="100" height="100" fill="#D7D7D7"/>
<path d="M37.28 48H34.48L19 24.48V48H16.2V20.04H19L34.48 43.52V20.04H37.28V48ZM49.3819 48.32C47.3285 48.32 45.4752 47.8667 43.8219 46.96C42.1952 46.0267 40.9019 44.72 39.9419 43.04C39.0085 41.3333 38.5419 39.3467 38.5419 37.08C38.5419 34.8133 39.0219 32.84 39.9819 31.16C40.9419 29.4533 42.2485 28.1467 43.9019 27.24C45.5552 26.3067 47.4085 25.84 49.4619 25.84C51.5152 25.84 53.3685 26.3067 55.0219 27.24C56.7019 28.1467 58.0085 29.4533 58.9419 31.16C59.9019 32.84 60.3819 34.8133 60.3819 37.08C60.3819 39.32 59.9019 41.2933 58.9419 43C57.9819 44.7067 56.6619 46.0267 54.9819 46.96C53.3019 47.8667 51.4352 48.32 49.3819 48.32ZM49.3819 45.88C50.8219 45.88 52.1552 45.56 53.3819 44.92C54.6085 44.2533 55.5952 43.2667 56.3419 41.96C57.1152 40.6267 57.5019 39 57.5019 37.08C57.5019 35.16 57.1285 33.5467 56.3819 32.24C55.6352 30.9067 54.6485 29.92 53.4219 29.28C52.1952 28.6133 50.8619 28.28 49.4219 28.28C47.9819 28.28 46.6485 28.6133 45.4219 29.28C44.1952 29.92 43.2085 30.9067 42.4619 32.24C41.7419 33.5467 41.3819 35.16 41.3819 37.08C41.3819 39 41.7419 40.6267 42.4619 41.96C43.2085 43.2667 44.1819 44.2533 45.3819 44.92C46.6085 45.56 47.9419 45.88 49.3819 45.88ZM17.6 54.04C17.04 54.04 16.56 53.84 16.16 53.44C15.76 53.04 15.56 52.5467 15.56 51.96C15.56 51.3733 15.76 50.8933 16.16 50.52C16.56 50.12 17.04 49.92 17.6 49.92C18.16 49.92 18.64 50.12 19.04 50.52C19.44 50.8933 19.64 51.3733 19.64 51.96C19.64 52.5467 19.44 53.04 19.04 53.44C18.64 53.84 18.16 54.04 17.6 54.04ZM19 58.16V80H16.2V58.16H19ZM20.2606 69.08C20.2606 66.8133 20.714 64.84 21.6206 63.16C22.5273 61.4533 23.7806 60.1467 25.3806 59.24C26.9806 58.3067 28.8073 57.84 30.8606 57.84C33.554 57.84 35.7673 58.5067 37.5006 59.84C39.2606 61.1733 40.394 62.9867 40.9006 65.28H37.9006C37.5273 63.7067 36.714 62.48 35.4606 61.6C34.234 60.6933 32.7006 60.24 30.8606 60.24C29.394 60.24 28.074 60.5733 26.9006 61.24C25.7273 61.9067 24.794 62.9067 24.1006 64.24C23.434 65.5467 23.1006 67.16 23.1006 69.08C23.1006 71 23.434 72.6267 24.1006 73.96C24.794 75.2933 25.7273 76.2933 26.9006 76.96C28.074 77.6267 29.394 77.96 30.8606 77.96C32.7006 77.96 34.234 77.52 35.4606 76.64C36.714 75.7333 37.5273 74.48 37.9006 72.88H40.9006C40.394 75.12 39.2606 76.92 37.5006 78.28C35.7406 79.64 33.5273 80.32 30.8606 80.32C28.8073 80.32 26.9806 79.8667 25.3806 78.96C23.7806 78.0267 22.5273 76.72 21.6206 75.04C20.714 73.3333 20.2606 71.3467 20.2606 69.08ZM51.8319 80.32C49.7785 80.32 47.9252 79.8667 46.2719 78.96C44.6452 78.0267 43.3519 76.72 42.3919 75.04C41.4585 73.3333 40.9919 71.3467 40.9919 69.08C40.9919 66.8133 41.4719 64.84 42.4319 63.16C43.3919 61.4533 44.6985 60.1467 46.3519 59.24C48.0052 58.3067 49.8585 57.84 51.9119 57.84C53.9652 57.84 55.8185 58.3067 57.4719 59.24C59.1519 60.1467 60.4585 61.4533 61.3919 63.16C62.3519 64.84 62.8319 66.8133 62.8319 69.08C62.8319 71.32 62.3519 73.2933 61.3919 75C60.4319 76.7067 59.1119 78.0267 57.4319 78.96C55.7519 79.8667 53.8852 80.32 51.8319 80.32ZM51.8319 77.88C53.2719 77.88 54.6052 77.56 55.8319 76.92C57.0585 76.2533 58.0452 75.2667 58.7919 73.96C59.5652 72.6267 59.9519 71 59.9519 69.08C59.9519 67.16 59.5785 65.5467 58.8319 64.24C58.0852 62.9067 57.0985 61.92 55.8719 61.28C54.6452 60.6133 53.3119 60.28 51.8719 60.28C50.4319 60.28 49.0985 60.6133 47.8719 61.28C46.6452 61.92 45.6585 62.9067 44.9119 64.24C44.1919 65.5467 43.8319 67.16 43.8319 69.08C43.8319 71 44.1919 72.6267 44.9119 73.96C45.6585 75.2667 46.6319 76.2533 47.8319 76.92C49.0585 77.56 50.3919 77.88 51.8319 77.88ZM74.3759 57.76C76.9893 57.76 79.1226 58.5733 80.7759 60.2C82.4293 61.8 83.2559 64.1333 83.2559 67.2V80H80.4959V67.52C80.4959 65.1467 79.8959 63.3333 78.6959 62.08C77.5226 60.8267 75.9093 60.2 73.8559 60.2C71.7493 60.2 70.0693 60.8667 68.8159 62.2C67.5626 63.5333 66.9359 65.4933 66.9359 68.08V80H64.1359V58.16H66.9359V61.88C67.6293 60.5467 68.6293 59.5333 69.9359 58.84C71.2426 58.12 72.7226 57.76 74.3759 57.76Z" fill="black"/>
</svg>
